<mxfile host="app.diagrams.net" agent="Mozilla/5.0 (Windows NT 10.0; Win64; x64) AppleWebKit/537.36 (KHTML, like Gecko) Chrome/139.0.0.0 Safari/537.36" version="28.1.2">
  <diagram name="PÃ¡gina-1" id="NQkXMUBQKm2SLF_Goovn">
    <mxGraphModel grid="1" page="1" gridSize="10" guides="1" tooltips="1" connect="1" arrows="1" fold="1" pageScale="1" pageWidth="827" pageHeight="1169" math="0" shadow="0">
      <root>
        <mxCell id="0" />
        <mxCell id="1" parent="0" />
        <mxCell id="QRnYH_-JmMfAX1AIp24R-2" style="edgeStyle=orthogonalEdgeStyle;rounded=0;orthogonalLoop=1;jettySize=auto;html=1;entryX=0;entryY=0.5;entryDx=0;entryDy=0;" edge="1" parent="1" source="pzSvlOvPt3y8x7YYl4AI-1" target="QRnYH_-JmMfAX1AIp24R-1">
          <mxGeometry relative="1" as="geometry" />
        </mxCell>
        <mxCell id="pzSvlOvPt3y8x7YYl4AI-1" value="Usuario" style="rounded=0;whiteSpace=wrap;html=1;" vertex="1" parent="1">
          <mxGeometry x="230" y="202.5" width="120" height="60" as="geometry" />
        </mxCell>
        <mxCell id="QRnYH_-JmMfAX1AIp24R-3" style="edgeStyle=orthogonalEdgeStyle;rounded=0;orthogonalLoop=1;jettySize=auto;html=1;exitX=0.019;exitY=0.433;exitDx=0;exitDy=0;entryX=1;entryY=0.25;entryDx=0;entryDy=0;exitPerimeter=0;" edge="1" parent="1" source="QRnYH_-JmMfAX1AIp24R-1" target="pzSvlOvPt3y8x7YYl4AI-1">
          <mxGeometry relative="1" as="geometry">
            <Array as="points">
              <mxPoint x="420" y="219.5" />
              <mxPoint x="420" y="217.5" />
            </Array>
          </mxGeometry>
        </mxCell>
        <mxCell id="QRnYH_-JmMfAX1AIp24R-1" value="Sistema de chat y calificacion" style="ellipse;whiteSpace=wrap;html=1;aspect=fixed;" vertex="1" parent="1">
          <mxGeometry x="420" y="132.5" width="200" height="200" as="geometry" />
        </mxCell>
        <mxCell id="QRnYH_-JmMfAX1AIp24R-4" value="identificarse" style="ellipse;whiteSpace=wrap;html=1;aspect=fixed;" vertex="1" parent="1">
          <mxGeometry x="1194" y="132.5" width="130" height="130" as="geometry" />
        </mxCell>
        <mxCell id="QRnYH_-JmMfAX1AIp24R-5" value="Usuario" style="rounded=0;whiteSpace=wrap;html=1;" vertex="1" parent="1">
          <mxGeometry x="937" y="162.5" width="120" height="60" as="geometry" />
        </mxCell>
        <mxCell id="QRnYH_-JmMfAX1AIp24R-7" style="edgeStyle=orthogonalEdgeStyle;rounded=0;orthogonalLoop=1;jettySize=auto;html=1;entryX=0.006;entryY=0.465;entryDx=0;entryDy=0;entryPerimeter=0;" edge="1" parent="1" source="QRnYH_-JmMfAX1AIp24R-5" target="QRnYH_-JmMfAX1AIp24R-4">
          <mxGeometry relative="1" as="geometry" />
        </mxCell>
        <mxCell id="QRnYH_-JmMfAX1AIp24R-14" style="edgeStyle=orthogonalEdgeStyle;rounded=0;orthogonalLoop=1;jettySize=auto;html=1;exitX=0;exitY=1;exitDx=0;exitDy=0;entryX=0.5;entryY=0;entryDx=0;entryDy=0;" edge="1" parent="1" source="QRnYH_-JmMfAX1AIp24R-4" target="QRnYH_-JmMfAX1AIp24R-12">
          <mxGeometry relative="1" as="geometry">
            <mxPoint x="1214.8058261758408" y="409.1941738241592" as="sourcePoint" />
          </mxGeometry>
        </mxCell>
        <mxCell id="QRnYH_-JmMfAX1AIp24R-15" style="edgeStyle=orthogonalEdgeStyle;rounded=0;orthogonalLoop=1;jettySize=auto;html=1;exitX=1;exitY=1;exitDx=0;exitDy=0;entryX=0.5;entryY=0;entryDx=0;entryDy=0;" edge="1" parent="1" source="QRnYH_-JmMfAX1AIp24R-4" target="QRnYH_-JmMfAX1AIp24R-13">
          <mxGeometry relative="1" as="geometry">
            <mxPoint x="1303.194173824159" y="409.19417382415895" as="sourcePoint" />
            <Array as="points">
              <mxPoint x="1303" y="243.5" />
              <mxPoint x="1303" y="352.5" />
              <mxPoint x="1348" y="352.5" />
            </Array>
          </mxGeometry>
        </mxCell>
        <mxCell id="QRnYH_-JmMfAX1AIp24R-35" style="edgeStyle=orthogonalEdgeStyle;rounded=0;orthogonalLoop=1;jettySize=auto;html=1;" edge="1" parent="1" source="QRnYH_-JmMfAX1AIp24R-12" target="QRnYH_-JmMfAX1AIp24R-25">
          <mxGeometry relative="1" as="geometry" />
        </mxCell>
        <mxCell id="QRnYH_-JmMfAX1AIp24R-12" value="ver chats&amp;nbsp;" style="ellipse;whiteSpace=wrap;html=1;aspect=fixed;" vertex="1" parent="1">
          <mxGeometry x="1114" y="452.5" width="125" height="125" as="geometry" />
        </mxCell>
        <mxCell id="QRnYH_-JmMfAX1AIp24R-33" style="edgeStyle=orthogonalEdgeStyle;rounded=0;orthogonalLoop=1;jettySize=auto;html=1;entryX=0.5;entryY=0;entryDx=0;entryDy=0;" edge="1" parent="1" source="QRnYH_-JmMfAX1AIp24R-13" target="QRnYH_-JmMfAX1AIp24R-27">
          <mxGeometry relative="1" as="geometry" />
        </mxCell>
        <mxCell id="QRnYH_-JmMfAX1AIp24R-34" style="edgeStyle=orthogonalEdgeStyle;rounded=0;orthogonalLoop=1;jettySize=auto;html=1;exitX=0;exitY=1;exitDx=0;exitDy=0;entryX=0;entryY=0.5;entryDx=0;entryDy=0;" edge="1" parent="1" source="QRnYH_-JmMfAX1AIp24R-13" target="QRnYH_-JmMfAX1AIp24R-28">
          <mxGeometry relative="1" as="geometry">
            <Array as="points">
              <mxPoint x="1265" y="559.5" />
              <mxPoint x="1265" y="824.5" />
            </Array>
          </mxGeometry>
        </mxCell>
        <mxCell id="QRnYH_-JmMfAX1AIp24R-13" value="ver posteos" style="ellipse;whiteSpace=wrap;html=1;aspect=fixed;" vertex="1" parent="1">
          <mxGeometry x="1285" y="452.5" width="125" height="125" as="geometry" />
        </mxCell>
        <mxCell id="QRnYH_-JmMfAX1AIp24R-18" value="" style="endArrow=none;html=1;rounded=0;" edge="1" parent="1">
          <mxGeometry width="50" height="50" relative="1" as="geometry">
            <mxPoint x="1004" y="472.5" as="sourcePoint" />
            <mxPoint x="1084" y="472.5" as="targetPoint" />
          </mxGeometry>
        </mxCell>
        <mxCell id="QRnYH_-JmMfAX1AIp24R-19" value="" style="endArrow=none;html=1;rounded=0;" edge="1" parent="1">
          <mxGeometry width="50" height="50" relative="1" as="geometry">
            <mxPoint x="1004" y="514.5" as="sourcePoint" />
            <mxPoint x="1084" y="514.5" as="targetPoint" />
          </mxGeometry>
        </mxCell>
        <mxCell id="QRnYH_-JmMfAX1AIp24R-24" style="edgeStyle=orthogonalEdgeStyle;rounded=0;orthogonalLoop=1;jettySize=auto;html=1;entryX=0;entryY=0.5;entryDx=0;entryDy=0;" edge="1" parent="1" source="QRnYH_-JmMfAX1AIp24R-20" target="QRnYH_-JmMfAX1AIp24R-12">
          <mxGeometry relative="1" as="geometry" />
        </mxCell>
        <mxCell id="QRnYH_-JmMfAX1AIp24R-20" value="CHAT" style="text;html=1;align=center;verticalAlign=middle;resizable=0;points=[];autosize=1;strokeColor=none;fillColor=none;" vertex="1" parent="1">
          <mxGeometry x="1014" y="482.5" width="60" height="30" as="geometry" />
        </mxCell>
        <mxCell id="QRnYH_-JmMfAX1AIp24R-21" value="" style="endArrow=none;html=1;rounded=0;" edge="1" parent="1">
          <mxGeometry width="50" height="50" relative="1" as="geometry">
            <mxPoint x="1464" y="434.5" as="sourcePoint" />
            <mxPoint x="1544" y="434.5" as="targetPoint" />
          </mxGeometry>
        </mxCell>
        <mxCell id="QRnYH_-JmMfAX1AIp24R-22" value="" style="endArrow=none;html=1;rounded=0;" edge="1" parent="1">
          <mxGeometry width="50" height="50" relative="1" as="geometry">
            <mxPoint x="1464" y="474.5" as="sourcePoint" />
            <mxPoint x="1544" y="474.5" as="targetPoint" />
          </mxGeometry>
        </mxCell>
        <mxCell id="QRnYH_-JmMfAX1AIp24R-31" style="edgeStyle=orthogonalEdgeStyle;rounded=0;orthogonalLoop=1;jettySize=auto;html=1;" edge="1" parent="1" source="QRnYH_-JmMfAX1AIp24R-23" target="QRnYH_-JmMfAX1AIp24R-13">
          <mxGeometry relative="1" as="geometry" />
        </mxCell>
        <mxCell id="QRnYH_-JmMfAX1AIp24R-23" value="POSTEOS" style="text;html=1;align=center;verticalAlign=middle;resizable=0;points=[];autosize=1;strokeColor=none;fillColor=none;" vertex="1" parent="1">
          <mxGeometry x="1464" y="437.5" width="80" height="30" as="geometry" />
        </mxCell>
        <mxCell id="QRnYH_-JmMfAX1AIp24R-32" style="edgeStyle=orthogonalEdgeStyle;rounded=0;orthogonalLoop=1;jettySize=auto;html=1;" edge="1" parent="1" source="QRnYH_-JmMfAX1AIp24R-25">
          <mxGeometry relative="1" as="geometry">
            <mxPoint x="1044.0000000000002" y="512.5" as="targetPoint" />
          </mxGeometry>
        </mxCell>
        <mxCell id="QRnYH_-JmMfAX1AIp24R-25" value="enviar mensajes&amp;nbsp;" style="ellipse;whiteSpace=wrap;html=1;aspect=fixed;" vertex="1" parent="1">
          <mxGeometry x="1114" y="612.5" width="125" height="125" as="geometry" />
        </mxCell>
        <mxCell id="QRnYH_-JmMfAX1AIp24R-30" style="edgeStyle=orthogonalEdgeStyle;rounded=0;orthogonalLoop=1;jettySize=auto;html=1;" edge="1" parent="1" source="QRnYH_-JmMfAX1AIp24R-27">
          <mxGeometry relative="1" as="geometry">
            <mxPoint x="1494" y="472.5" as="targetPoint" />
          </mxGeometry>
        </mxCell>
        <mxCell id="QRnYH_-JmMfAX1AIp24R-27" value="subir posteos&amp;nbsp;" style="ellipse;whiteSpace=wrap;html=1;aspect=fixed;" vertex="1" parent="1">
          <mxGeometry x="1285" y="612.5" width="125" height="125" as="geometry" />
        </mxCell>
        <mxCell id="QRnYH_-JmMfAX1AIp24R-29" style="edgeStyle=orthogonalEdgeStyle;rounded=0;orthogonalLoop=1;jettySize=auto;html=1;" edge="1" parent="1" source="QRnYH_-JmMfAX1AIp24R-28">
          <mxGeometry relative="1" as="geometry">
            <mxPoint x="1514" y="472.5" as="targetPoint" />
          </mxGeometry>
        </mxCell>
        <mxCell id="QRnYH_-JmMfAX1AIp24R-28" value="calificar posteos&amp;nbsp;" style="ellipse;whiteSpace=wrap;html=1;aspect=fixed;" vertex="1" parent="1">
          <mxGeometry x="1285" y="762.5" width="125" height="125" as="geometry" />
        </mxCell>
        <mxCell id="QRnYH_-JmMfAX1AIp24R-36" value="1" style="text;html=1;align=center;verticalAlign=middle;resizable=0;points=[];autosize=1;strokeColor=none;fillColor=none;" vertex="1" parent="1">
          <mxGeometry x="1244" y="142.5" width="30" height="30" as="geometry" />
        </mxCell>
        <mxCell id="QRnYH_-JmMfAX1AIp24R-37" value="1" style="text;html=1;align=center;verticalAlign=middle;resizable=0;points=[];autosize=1;strokeColor=none;fillColor=none;" vertex="1" parent="1">
          <mxGeometry x="1332.5" y="462.5" width="30" height="30" as="geometry" />
        </mxCell>
        <mxCell id="QRnYH_-JmMfAX1AIp24R-38" value="1" style="text;html=1;align=center;verticalAlign=middle;resizable=0;points=[];autosize=1;strokeColor=none;fillColor=none;" vertex="1" parent="1">
          <mxGeometry x="1161.5" y="462.5" width="30" height="30" as="geometry" />
        </mxCell>
        <mxCell id="QRnYH_-JmMfAX1AIp24R-39" value="1" style="text;html=1;align=center;verticalAlign=middle;resizable=0;points=[];autosize=1;strokeColor=none;fillColor=none;" vertex="1" parent="1">
          <mxGeometry x="1332.5" y="627.5" width="30" height="30" as="geometry" />
        </mxCell>
        <mxCell id="QRnYH_-JmMfAX1AIp24R-40" value="1" style="text;html=1;align=center;verticalAlign=middle;resizable=0;points=[];autosize=1;strokeColor=none;fillColor=none;" vertex="1" parent="1">
          <mxGeometry x="1161.5" y="627.5" width="30" height="30" as="geometry" />
        </mxCell>
        <mxCell id="QRnYH_-JmMfAX1AIp24R-41" value="1" style="text;html=1;align=center;verticalAlign=middle;resizable=0;points=[];autosize=1;strokeColor=none;fillColor=none;" vertex="1" parent="1">
          <mxGeometry x="1332.5" y="772.5" width="30" height="30" as="geometry" />
        </mxCell>
        <mxCell id="QRnYH_-JmMfAX1AIp24R-77" style="edgeStyle=orthogonalEdgeStyle;rounded=0;orthogonalLoop=1;jettySize=auto;html=1;entryX=0.5;entryY=0;entryDx=0;entryDy=0;" edge="1" parent="1" source="QRnYH_-JmMfAX1AIp24R-42" target="QRnYH_-JmMfAX1AIp24R-76">
          <mxGeometry relative="1" as="geometry" />
        </mxCell>
        <mxCell id="QRnYH_-JmMfAX1AIp24R-42" value="identificarse" style="ellipse;whiteSpace=wrap;html=1;aspect=fixed;" vertex="1" parent="1">
          <mxGeometry x="2400.5" y="143.5" width="100" height="100" as="geometry" />
        </mxCell>
        <mxCell id="QRnYH_-JmMfAX1AIp24R-75" style="edgeStyle=orthogonalEdgeStyle;rounded=0;orthogonalLoop=1;jettySize=auto;html=1;entryX=0;entryY=0.5;entryDx=0;entryDy=0;" edge="1" parent="1" source="QRnYH_-JmMfAX1AIp24R-43" target="QRnYH_-JmMfAX1AIp24R-42">
          <mxGeometry relative="1" as="geometry" />
        </mxCell>
        <mxCell id="QRnYH_-JmMfAX1AIp24R-43" value="Usuario" style="rounded=0;whiteSpace=wrap;html=1;" vertex="1" parent="1">
          <mxGeometry x="2120" y="156" width="120" height="75" as="geometry" />
        </mxCell>
        <mxCell id="QRnYH_-JmMfAX1AIp24R-52" value="" style="endArrow=none;html=1;rounded=0;" edge="1" parent="1">
          <mxGeometry width="50" height="50" relative="1" as="geometry">
            <mxPoint x="2050" y="670.79" as="sourcePoint" />
            <mxPoint x="2130" y="670.79" as="targetPoint" />
          </mxGeometry>
        </mxCell>
        <mxCell id="QRnYH_-JmMfAX1AIp24R-53" value="" style="endArrow=none;html=1;rounded=0;" edge="1" parent="1">
          <mxGeometry width="50" height="50" relative="1" as="geometry">
            <mxPoint x="2050" y="698.5" as="sourcePoint" />
            <mxPoint x="2130" y="698.5" as="targetPoint" />
          </mxGeometry>
        </mxCell>
        <mxCell id="QRnYH_-JmMfAX1AIp24R-196" style="edgeStyle=orthogonalEdgeStyle;rounded=0;orthogonalLoop=1;jettySize=auto;html=1;entryX=0;entryY=0.5;entryDx=0;entryDy=0;" edge="1" parent="1" source="QRnYH_-JmMfAX1AIp24R-55" target="QRnYH_-JmMfAX1AIp24R-183">
          <mxGeometry relative="1" as="geometry" />
        </mxCell>
        <mxCell id="QRnYH_-JmMfAX1AIp24R-231" style="edgeStyle=orthogonalEdgeStyle;rounded=0;orthogonalLoop=1;jettySize=auto;html=1;entryX=0;entryY=0;entryDx=0;entryDy=0;" edge="1" parent="1" source="QRnYH_-JmMfAX1AIp24R-55" target="QRnYH_-JmMfAX1AIp24R-216">
          <mxGeometry relative="1" as="geometry">
            <Array as="points">
              <mxPoint x="2040" y="683.5" />
              <mxPoint x="2040" y="1728.5" />
            </Array>
          </mxGeometry>
        </mxCell>
        <mxCell id="QRnYH_-JmMfAX1AIp24R-55" value="CHAT" style="text;html=1;align=center;verticalAlign=middle;resizable=0;points=[];autosize=1;strokeColor=none;fillColor=none;" vertex="1" parent="1">
          <mxGeometry x="2060" y="668.5" width="60" height="30" as="geometry" />
        </mxCell>
        <mxCell id="QRnYH_-JmMfAX1AIp24R-56" value="" style="endArrow=none;html=1;rounded=0;" edge="1" parent="1">
          <mxGeometry width="50" height="50" relative="1" as="geometry">
            <mxPoint x="2810" y="515.5" as="sourcePoint" />
            <mxPoint x="2890" y="515.5" as="targetPoint" />
          </mxGeometry>
        </mxCell>
        <mxCell id="QRnYH_-JmMfAX1AIp24R-57" value="" style="endArrow=none;html=1;rounded=0;" edge="1" parent="1">
          <mxGeometry width="50" height="50" relative="1" as="geometry">
            <mxPoint x="2810" y="543.02" as="sourcePoint" />
            <mxPoint x="2890" y="543.02" as="targetPoint" />
          </mxGeometry>
        </mxCell>
        <mxCell id="QRnYH_-JmMfAX1AIp24R-209" style="edgeStyle=orthogonalEdgeStyle;rounded=0;orthogonalLoop=1;jettySize=auto;html=1;entryX=1;entryY=0.5;entryDx=0;entryDy=0;" edge="1" parent="1" source="QRnYH_-JmMfAX1AIp24R-59" target="QRnYH_-JmMfAX1AIp24R-118">
          <mxGeometry relative="1" as="geometry">
            <Array as="points">
              <mxPoint x="2880" y="1283.5" />
              <mxPoint x="2600" y="1283.5" />
              <mxPoint x="2600" y="670.5" />
            </Array>
          </mxGeometry>
        </mxCell>
        <mxCell id="QRnYH_-JmMfAX1AIp24R-230" style="edgeStyle=orthogonalEdgeStyle;rounded=0;orthogonalLoop=1;jettySize=auto;html=1;entryX=1;entryY=0.5;entryDx=0;entryDy=0;" edge="1" parent="1" source="QRnYH_-JmMfAX1AIp24R-59" target="QRnYH_-JmMfAX1AIp24R-216">
          <mxGeometry relative="1" as="geometry">
            <Array as="points">
              <mxPoint x="2950" y="528.5" />
              <mxPoint x="2950" y="1763.5" />
            </Array>
          </mxGeometry>
        </mxCell>
        <mxCell id="QRnYH_-JmMfAX1AIp24R-235" style="edgeStyle=orthogonalEdgeStyle;rounded=0;orthogonalLoop=1;jettySize=auto;html=1;entryX=1;entryY=0.5;entryDx=0;entryDy=0;" edge="1" parent="1" source="QRnYH_-JmMfAX1AIp24R-59" target="QRnYH_-JmMfAX1AIp24R-120">
          <mxGeometry relative="1" as="geometry">
            <Array as="points">
              <mxPoint x="2840" y="573.5" />
              <mxPoint x="2610" y="573.5" />
              <mxPoint x="2610" y="791.5" />
            </Array>
          </mxGeometry>
        </mxCell>
        <mxCell id="QRnYH_-JmMfAX1AIp24R-59" value="POSTEOS" style="text;html=1;align=center;verticalAlign=middle;resizable=0;points=[];autosize=1;strokeColor=none;fillColor=none;" vertex="1" parent="1">
          <mxGeometry x="2810" y="513.5" width="80" height="30" as="geometry" />
        </mxCell>
        <mxCell id="QRnYH_-JmMfAX1AIp24R-74" value="2" style="text;html=1;align=center;verticalAlign=middle;resizable=0;points=[];autosize=1;strokeColor=none;fillColor=none;" vertex="1" parent="1">
          <mxGeometry x="2435.5" y="153.5" width="30" height="30" as="geometry" />
        </mxCell>
        <mxCell id="QRnYH_-JmMfAX1AIp24R-90" style="edgeStyle=orthogonalEdgeStyle;rounded=0;orthogonalLoop=1;jettySize=auto;html=1;entryX=0.5;entryY=0;entryDx=0;entryDy=0;" edge="1" parent="1" source="QRnYH_-JmMfAX1AIp24R-76" target="QRnYH_-JmMfAX1AIp24R-89">
          <mxGeometry relative="1" as="geometry" />
        </mxCell>
        <mxCell id="QRnYH_-JmMfAX1AIp24R-91" style="edgeStyle=orthogonalEdgeStyle;rounded=0;orthogonalLoop=1;jettySize=auto;html=1;entryX=0.5;entryY=0;entryDx=0;entryDy=0;" edge="1" parent="1" source="QRnYH_-JmMfAX1AIp24R-76" target="QRnYH_-JmMfAX1AIp24R-87">
          <mxGeometry relative="1" as="geometry" />
        </mxCell>
        <mxCell id="QRnYH_-JmMfAX1AIp24R-93" style="edgeStyle=orthogonalEdgeStyle;rounded=0;orthogonalLoop=1;jettySize=auto;html=1;entryX=0.5;entryY=0;entryDx=0;entryDy=0;" edge="1" parent="1" source="QRnYH_-JmMfAX1AIp24R-76" target="QRnYH_-JmMfAX1AIp24R-88">
          <mxGeometry relative="1" as="geometry" />
        </mxCell>
        <mxCell id="QRnYH_-JmMfAX1AIp24R-76" value="verificar usuario" style="ellipse;whiteSpace=wrap;html=1;aspect=fixed;" vertex="1" parent="1">
          <mxGeometry x="2400.5" y="273.5" width="100" height="100" as="geometry" />
        </mxCell>
        <mxCell id="QRnYH_-JmMfAX1AIp24R-78" value="" style="endArrow=none;html=1;rounded=0;" edge="1" parent="1">
          <mxGeometry width="50" height="50" relative="1" as="geometry">
            <mxPoint x="2600" y="153.5" as="sourcePoint" />
            <mxPoint x="2680" y="153.5" as="targetPoint" />
          </mxGeometry>
        </mxCell>
        <mxCell id="QRnYH_-JmMfAX1AIp24R-79" value="" style="endArrow=none;html=1;rounded=0;" edge="1" parent="1">
          <mxGeometry width="50" height="50" relative="1" as="geometry">
            <mxPoint x="2600" y="193.16" as="sourcePoint" />
            <mxPoint x="2680" y="193.16" as="targetPoint" />
          </mxGeometry>
        </mxCell>
        <mxCell id="QRnYH_-JmMfAX1AIp24R-80" value="" style="endArrow=none;html=1;rounded=0;" edge="1" parent="1">
          <mxGeometry width="50" height="50" relative="1" as="geometry">
            <mxPoint x="2600" y="233.5" as="sourcePoint" />
            <mxPoint x="2680" y="233.5" as="targetPoint" />
          </mxGeometry>
        </mxCell>
        <mxCell id="QRnYH_-JmMfAX1AIp24R-81" value="" style="endArrow=none;html=1;rounded=0;" edge="1" parent="1">
          <mxGeometry width="50" height="50" relative="1" as="geometry">
            <mxPoint x="2600" y="273.5" as="sourcePoint" />
            <mxPoint x="2680" y="273.5" as="targetPoint" />
          </mxGeometry>
        </mxCell>
        <mxCell id="QRnYH_-JmMfAX1AIp24R-92" style="edgeStyle=orthogonalEdgeStyle;rounded=0;orthogonalLoop=1;jettySize=auto;html=1;entryX=1;entryY=0;entryDx=0;entryDy=0;" edge="1" parent="1" source="QRnYH_-JmMfAX1AIp24R-82" target="QRnYH_-JmMfAX1AIp24R-76">
          <mxGeometry relative="1" as="geometry">
            <Array as="points">
              <mxPoint x="2550" y="178.5" />
              <mxPoint x="2550" y="288.5" />
            </Array>
          </mxGeometry>
        </mxCell>
        <mxCell id="QRnYH_-JmMfAX1AIp24R-233" style="edgeStyle=orthogonalEdgeStyle;rounded=0;orthogonalLoop=1;jettySize=auto;html=1;entryX=0;entryY=0;entryDx=0;entryDy=0;" edge="1" parent="1">
          <mxGeometry relative="1" as="geometry">
            <Array as="points">
              <mxPoint x="2635" y="132.5" />
              <mxPoint x="1980" y="132.5" />
              <mxPoint x="1980" y="1752.5" />
              <mxPoint x="2245" y="1752.5" />
            </Array>
            <mxPoint x="2635.058823529412" y="167.5" as="sourcePoint" />
            <mxPoint x="2244.644660940673" y="1737.144660940673" as="targetPoint" />
          </mxGeometry>
        </mxCell>
        <mxCell id="QRnYH_-JmMfAX1AIp24R-82" value="USUARIOS" style="text;html=1;align=center;verticalAlign=middle;resizable=0;points=[];autosize=1;strokeColor=none;fillColor=none;" vertex="1" parent="1">
          <mxGeometry x="2592.5" y="158.5" width="90" height="30" as="geometry" />
        </mxCell>
        <mxCell id="QRnYH_-JmMfAX1AIp24R-84" style="edgeStyle=orthogonalEdgeStyle;rounded=0;orthogonalLoop=1;jettySize=auto;html=1;entryX=1;entryY=0;entryDx=0;entryDy=0;" edge="1" parent="1" source="QRnYH_-JmMfAX1AIp24R-83" target="QRnYH_-JmMfAX1AIp24R-76">
          <mxGeometry relative="1" as="geometry">
            <Array as="points">
              <mxPoint x="2640" y="300" />
              <mxPoint x="2486" y="300" />
            </Array>
          </mxGeometry>
        </mxCell>
        <mxCell id="QRnYH_-JmMfAX1AIp24R-232" style="edgeStyle=orthogonalEdgeStyle;rounded=0;orthogonalLoop=1;jettySize=auto;html=1;entryX=0;entryY=0;entryDx=0;entryDy=0;" edge="1" parent="1" source="QRnYH_-JmMfAX1AIp24R-83" target="QRnYH_-JmMfAX1AIp24R-216">
          <mxGeometry relative="1" as="geometry">
            <Array as="points">
              <mxPoint x="2590" y="248" />
              <mxPoint x="2590" y="140" />
              <mxPoint x="1990" y="140" />
              <mxPoint x="1990" y="1744" />
              <mxPoint x="2245" y="1744" />
            </Array>
          </mxGeometry>
        </mxCell>
        <mxCell id="lplbd2dY6ND16WC-ceMp-4" value="Text" style="edgeLabel;html=1;align=center;verticalAlign=middle;resizable=0;points=[];" connectable="0" vertex="1" parent="QRnYH_-JmMfAX1AIp24R-232">
          <mxGeometry x="0.7877" y="-6" relative="1" as="geometry">
            <mxPoint y="-1" as="offset" />
          </mxGeometry>
        </mxCell>
        <mxCell id="QRnYH_-JmMfAX1AIp24R-83" value="ROLES" style="text;html=1;align=center;verticalAlign=middle;resizable=0;points=[];autosize=1;strokeColor=none;fillColor=none;" vertex="1" parent="1">
          <mxGeometry x="2610.5" y="233.5" width="60" height="30" as="geometry" />
        </mxCell>
        <mxCell id="QRnYH_-JmMfAX1AIp24R-218" style="edgeStyle=orthogonalEdgeStyle;rounded=0;orthogonalLoop=1;jettySize=auto;html=1;entryX=0;entryY=0.5;entryDx=0;entryDy=0;" edge="1" parent="1" source="QRnYH_-JmMfAX1AIp24R-87" target="QRnYH_-JmMfAX1AIp24R-212">
          <mxGeometry relative="1" as="geometry">
            <Array as="points">
              <mxPoint x="2020" y="443.4999999999998" />
              <mxPoint x="2020" y="1513.5" />
            </Array>
          </mxGeometry>
        </mxCell>
        <mxCell id="QRnYH_-JmMfAX1AIp24R-220" style="edgeStyle=orthogonalEdgeStyle;rounded=0;orthogonalLoop=1;jettySize=auto;html=1;entryX=0;entryY=0.5;entryDx=0;entryDy=0;" edge="1" parent="1" source="QRnYH_-JmMfAX1AIp24R-87" target="QRnYH_-JmMfAX1AIp24R-216">
          <mxGeometry relative="1" as="geometry">
            <Array as="points">
              <mxPoint x="2020" y="443.5000000000002" />
              <mxPoint x="2020" y="1763.5" />
            </Array>
          </mxGeometry>
        </mxCell>
        <mxCell id="QRnYH_-JmMfAX1AIp24R-87" value="Administrador" style="rounded=0;whiteSpace=wrap;html=1;" vertex="1" parent="1">
          <mxGeometry x="2230.5" y="413.5" width="120" height="60" as="geometry" />
        </mxCell>
        <mxCell id="QRnYH_-JmMfAX1AIp24R-208" style="edgeStyle=orthogonalEdgeStyle;rounded=0;orthogonalLoop=1;jettySize=auto;html=1;entryX=0.5;entryY=0;entryDx=0;entryDy=0;" edge="1" parent="1" source="QRnYH_-JmMfAX1AIp24R-88" target="QRnYH_-JmMfAX1AIp24R-97">
          <mxGeometry relative="1" as="geometry">
            <Array as="points">
              <mxPoint x="2611" y="550" />
              <mxPoint x="2270" y="550" />
              <mxPoint x="2270" y="614" />
            </Array>
          </mxGeometry>
        </mxCell>
        <mxCell id="QRnYH_-JmMfAX1AIp24R-211" style="edgeStyle=orthogonalEdgeStyle;rounded=0;orthogonalLoop=1;jettySize=auto;html=1;entryX=0.5;entryY=0;entryDx=0;entryDy=0;" edge="1" parent="1" source="QRnYH_-JmMfAX1AIp24R-88" target="QRnYH_-JmMfAX1AIp24R-126">
          <mxGeometry relative="1" as="geometry">
            <Array as="points">
              <mxPoint x="2611" y="550" />
              <mxPoint x="2673" y="550" />
            </Array>
          </mxGeometry>
        </mxCell>
        <mxCell id="QRnYH_-JmMfAX1AIp24R-88" value="Empleado" style="rounded=0;whiteSpace=wrap;html=1;" vertex="1" parent="1">
          <mxGeometry x="2550.5" y="413.5" width="120" height="60" as="geometry" />
        </mxCell>
        <mxCell id="QRnYH_-JmMfAX1AIp24R-197" style="edgeStyle=orthogonalEdgeStyle;rounded=0;orthogonalLoop=1;jettySize=auto;html=1;entryX=0.5;entryY=0;entryDx=0;entryDy=0;" edge="1" parent="1" source="QRnYH_-JmMfAX1AIp24R-89" target="QRnYH_-JmMfAX1AIp24R-97">
          <mxGeometry relative="1" as="geometry">
            <Array as="points">
              <mxPoint x="2451" y="520" />
              <mxPoint x="2254" y="520" />
            </Array>
          </mxGeometry>
        </mxCell>
        <mxCell id="QRnYH_-JmMfAX1AIp24R-207" style="edgeStyle=orthogonalEdgeStyle;rounded=0;orthogonalLoop=1;jettySize=auto;html=1;entryX=0.5;entryY=0;entryDx=0;entryDy=0;" edge="1" parent="1" source="QRnYH_-JmMfAX1AIp24R-89" target="QRnYH_-JmMfAX1AIp24R-118">
          <mxGeometry relative="1" as="geometry">
            <Array as="points">
              <mxPoint x="2450" y="500" />
              <mxPoint x="2507" y="500" />
            </Array>
          </mxGeometry>
        </mxCell>
        <mxCell id="QRnYH_-JmMfAX1AIp24R-89" value="Moderador" style="rounded=0;whiteSpace=wrap;html=1;" vertex="1" parent="1">
          <mxGeometry x="2391" y="413.5" width="120" height="60" as="geometry" />
        </mxCell>
        <mxCell id="QRnYH_-JmMfAX1AIp24R-189" style="edgeStyle=orthogonalEdgeStyle;rounded=0;orthogonalLoop=1;jettySize=auto;html=1;entryX=0.5;entryY=0;entryDx=0;entryDy=0;" edge="1" parent="1" source="QRnYH_-JmMfAX1AIp24R-97" target="QRnYH_-JmMfAX1AIp24R-183">
          <mxGeometry relative="1" as="geometry" />
        </mxCell>
        <mxCell id="QRnYH_-JmMfAX1AIp24R-97" value="ingresar a chat" style="ellipse;whiteSpace=wrap;html=1;aspect=fixed;" vertex="1" parent="1">
          <mxGeometry x="2204" y="613.5" width="100" height="100" as="geometry" />
        </mxCell>
        <mxCell id="QRnYH_-JmMfAX1AIp24R-98" value="2" style="text;html=1;align=center;verticalAlign=middle;resizable=0;points=[];autosize=1;strokeColor=none;fillColor=none;" vertex="1" parent="1">
          <mxGeometry x="2239" y="621" width="30" height="30" as="geometry" />
        </mxCell>
        <mxCell id="QRnYH_-JmMfAX1AIp24R-102" value="enviar mensaje" style="ellipse;whiteSpace=wrap;html=1;aspect=fixed;" vertex="1" parent="1">
          <mxGeometry x="2204" y="883.5" width="100" height="100" as="geometry" />
        </mxCell>
        <mxCell id="QRnYH_-JmMfAX1AIp24R-103" value="2" style="text;html=1;align=center;verticalAlign=middle;resizable=0;points=[];autosize=1;strokeColor=none;fillColor=none;" vertex="1" parent="1">
          <mxGeometry x="2240" y="896" width="30" height="30" as="geometry" />
        </mxCell>
        <mxCell id="QRnYH_-JmMfAX1AIp24R-114" style="edgeStyle=orthogonalEdgeStyle;rounded=0;orthogonalLoop=1;jettySize=auto;html=1;entryX=0.456;entryY=1.024;entryDx=0;entryDy=0;entryPerimeter=0;" edge="1" parent="1" source="QRnYH_-JmMfAX1AIp24R-104" target="QRnYH_-JmMfAX1AIp24R-55">
          <mxGeometry relative="1" as="geometry">
            <mxPoint x="2090" y="703.5" as="targetPoint" />
          </mxGeometry>
        </mxCell>
        <mxCell id="QRnYH_-JmMfAX1AIp24R-192" style="edgeStyle=orthogonalEdgeStyle;rounded=0;orthogonalLoop=1;jettySize=auto;html=1;entryX=0.5;entryY=0;entryDx=0;entryDy=0;" edge="1" parent="1" source="QRnYH_-JmMfAX1AIp24R-104" target="QRnYH_-JmMfAX1AIp24R-106">
          <mxGeometry relative="1" as="geometry" />
        </mxCell>
        <mxCell id="QRnYH_-JmMfAX1AIp24R-104" value="editar mensaje" style="ellipse;whiteSpace=wrap;html=1;aspect=fixed;" vertex="1" parent="1">
          <mxGeometry x="2204" y="1003.5" width="100" height="100" as="geometry" />
        </mxCell>
        <mxCell id="QRnYH_-JmMfAX1AIp24R-105" value="2" style="text;html=1;align=center;verticalAlign=middle;resizable=0;points=[];autosize=1;strokeColor=none;fillColor=none;" vertex="1" parent="1">
          <mxGeometry x="2239" y="1013.5" width="30" height="30" as="geometry" />
        </mxCell>
        <mxCell id="QRnYH_-JmMfAX1AIp24R-106" value="eliminar mensaje&amp;nbsp;" style="ellipse;whiteSpace=wrap;html=1;aspect=fixed;" vertex="1" parent="1">
          <mxGeometry x="2204" y="1153.5" width="100" height="100" as="geometry" />
        </mxCell>
        <mxCell id="QRnYH_-JmMfAX1AIp24R-107" value="2" style="text;html=1;align=center;verticalAlign=middle;resizable=0;points=[];autosize=1;strokeColor=none;fillColor=none;" vertex="1" parent="1">
          <mxGeometry x="2239" y="1158.5" width="30" height="30" as="geometry" />
        </mxCell>
        <mxCell id="QRnYH_-JmMfAX1AIp24R-115" style="edgeStyle=orthogonalEdgeStyle;rounded=0;orthogonalLoop=1;jettySize=auto;html=1;entryX=0.705;entryY=0.993;entryDx=0;entryDy=0;entryPerimeter=0;" edge="1" parent="1" source="QRnYH_-JmMfAX1AIp24R-102" target="QRnYH_-JmMfAX1AIp24R-55">
          <mxGeometry relative="1" as="geometry" />
        </mxCell>
        <mxCell id="QRnYH_-JmMfAX1AIp24R-144" style="edgeStyle=orthogonalEdgeStyle;rounded=0;orthogonalLoop=1;jettySize=auto;html=1;entryX=0.5;entryY=0;entryDx=0;entryDy=0;" edge="1" parent="1" source="QRnYH_-JmMfAX1AIp24R-118" target="QRnYH_-JmMfAX1AIp24R-120">
          <mxGeometry relative="1" as="geometry" />
        </mxCell>
        <mxCell id="QRnYH_-JmMfAX1AIp24R-118" value="seleccionar posteo" style="ellipse;whiteSpace=wrap;html=1;aspect=fixed;" vertex="1" parent="1">
          <mxGeometry x="2457.5" y="621" width="100" height="100" as="geometry" />
        </mxCell>
        <mxCell id="QRnYH_-JmMfAX1AIp24R-119" value="2" style="text;html=1;align=center;verticalAlign=middle;resizable=0;points=[];autosize=1;strokeColor=none;fillColor=none;" vertex="1" parent="1">
          <mxGeometry x="2493" y="633.5" width="30" height="30" as="geometry" />
        </mxCell>
        <mxCell id="QRnYH_-JmMfAX1AIp24R-146" style="edgeStyle=orthogonalEdgeStyle;rounded=0;orthogonalLoop=1;jettySize=auto;html=1;entryX=0.5;entryY=0;entryDx=0;entryDy=0;" edge="1" parent="1" source="QRnYH_-JmMfAX1AIp24R-120" target="QRnYH_-JmMfAX1AIp24R-122">
          <mxGeometry relative="1" as="geometry" />
        </mxCell>
        <mxCell id="QRnYH_-JmMfAX1AIp24R-205" style="edgeStyle=orthogonalEdgeStyle;rounded=0;orthogonalLoop=1;jettySize=auto;html=1;entryX=1;entryY=0.5;entryDx=0;entryDy=0;" edge="1" parent="1" source="QRnYH_-JmMfAX1AIp24R-120" target="QRnYH_-JmMfAX1AIp24R-199">
          <mxGeometry relative="1" as="geometry">
            <Array as="points">
              <mxPoint x="2580" y="790.5" />
              <mxPoint x="2580" y="1273.5" />
            </Array>
          </mxGeometry>
        </mxCell>
        <mxCell id="QRnYH_-JmMfAX1AIp24R-206" style="edgeStyle=orthogonalEdgeStyle;rounded=0;orthogonalLoop=1;jettySize=auto;html=1;entryX=1;entryY=0.5;entryDx=0;entryDy=0;" edge="1" parent="1" source="QRnYH_-JmMfAX1AIp24R-120" target="QRnYH_-JmMfAX1AIp24R-203">
          <mxGeometry relative="1" as="geometry">
            <Array as="points">
              <mxPoint x="2580" y="791.5" />
              <mxPoint x="2580" y="1393.5" />
            </Array>
          </mxGeometry>
        </mxCell>
        <mxCell id="QRnYH_-JmMfAX1AIp24R-120" value="ver posteo" style="ellipse;whiteSpace=wrap;html=1;aspect=fixed;" vertex="1" parent="1">
          <mxGeometry x="2457.5" y="741" width="100" height="100" as="geometry" />
        </mxCell>
        <mxCell id="QRnYH_-JmMfAX1AIp24R-121" value="2" style="text;html=1;align=center;verticalAlign=middle;resizable=0;points=[];autosize=1;strokeColor=none;fillColor=none;" vertex="1" parent="1">
          <mxGeometry x="2493" y="751" width="30" height="30" as="geometry" />
        </mxCell>
        <mxCell id="QRnYH_-JmMfAX1AIp24R-149" style="edgeStyle=orthogonalEdgeStyle;rounded=0;orthogonalLoop=1;jettySize=auto;html=1;entryX=0.5;entryY=0;entryDx=0;entryDy=0;" edge="1" parent="1" source="QRnYH_-JmMfAX1AIp24R-122" target="QRnYH_-JmMfAX1AIp24R-124">
          <mxGeometry relative="1" as="geometry" />
        </mxCell>
        <mxCell id="QRnYH_-JmMfAX1AIp24R-159" style="edgeStyle=orthogonalEdgeStyle;rounded=0;orthogonalLoop=1;jettySize=auto;html=1;" edge="1" parent="1" source="QRnYH_-JmMfAX1AIp24R-122" target="QRnYH_-JmMfAX1AIp24R-156">
          <mxGeometry relative="1" as="geometry" />
        </mxCell>
        <mxCell id="QRnYH_-JmMfAX1AIp24R-122" value="agregar comentario" style="ellipse;whiteSpace=wrap;html=1;aspect=fixed;" vertex="1" parent="1">
          <mxGeometry x="2458" y="896" width="100" height="100" as="geometry" />
        </mxCell>
        <mxCell id="QRnYH_-JmMfAX1AIp24R-123" value="2" style="text;html=1;align=center;verticalAlign=middle;resizable=0;points=[];autosize=1;strokeColor=none;fillColor=none;" vertex="1" parent="1">
          <mxGeometry x="2488" y="896" width="30" height="30" as="geometry" />
        </mxCell>
        <mxCell id="QRnYH_-JmMfAX1AIp24R-158" style="edgeStyle=orthogonalEdgeStyle;rounded=0;orthogonalLoop=1;jettySize=auto;html=1;" edge="1" parent="1" source="QRnYH_-JmMfAX1AIp24R-124" target="QRnYH_-JmMfAX1AIp24R-157">
          <mxGeometry relative="1" as="geometry" />
        </mxCell>
        <mxCell id="QRnYH_-JmMfAX1AIp24R-124" value="agregar calificacion" style="ellipse;whiteSpace=wrap;html=1;aspect=fixed;" vertex="1" parent="1">
          <mxGeometry x="2458" y="1053.5" width="100" height="100" as="geometry" />
        </mxCell>
        <mxCell id="QRnYH_-JmMfAX1AIp24R-125" value="2" style="text;html=1;align=center;verticalAlign=middle;resizable=0;points=[];autosize=1;strokeColor=none;fillColor=none;" vertex="1" parent="1">
          <mxGeometry x="2493" y="1063.5" width="30" height="30" as="geometry" />
        </mxCell>
        <mxCell id="QRnYH_-JmMfAX1AIp24R-139" style="edgeStyle=orthogonalEdgeStyle;rounded=0;orthogonalLoop=1;jettySize=auto;html=1;entryX=0.5;entryY=0;entryDx=0;entryDy=0;" edge="1" parent="1" source="QRnYH_-JmMfAX1AIp24R-126" target="QRnYH_-JmMfAX1AIp24R-128">
          <mxGeometry relative="1" as="geometry" />
        </mxCell>
        <mxCell id="QRnYH_-JmMfAX1AIp24R-126" value="agregar posteo" style="ellipse;whiteSpace=wrap;html=1;aspect=fixed;" vertex="1" parent="1">
          <mxGeometry x="2622.5" y="613.5" width="100" height="100" as="geometry" />
        </mxCell>
        <mxCell id="QRnYH_-JmMfAX1AIp24R-127" value="2" style="text;html=1;align=center;verticalAlign=middle;resizable=0;points=[];autosize=1;strokeColor=none;fillColor=none;" vertex="1" parent="1">
          <mxGeometry x="2657.5" y="621" width="30" height="30" as="geometry" />
        </mxCell>
        <mxCell id="QRnYH_-JmMfAX1AIp24R-140" style="edgeStyle=orthogonalEdgeStyle;rounded=0;orthogonalLoop=1;jettySize=auto;html=1;entryX=0.5;entryY=0;entryDx=0;entryDy=0;" edge="1" parent="1" source="QRnYH_-JmMfAX1AIp24R-128" target="QRnYH_-JmMfAX1AIp24R-134">
          <mxGeometry relative="1" as="geometry" />
        </mxCell>
        <mxCell id="QRnYH_-JmMfAX1AIp24R-128" value="agregar titulo" style="ellipse;whiteSpace=wrap;html=1;aspect=fixed;" vertex="1" parent="1">
          <mxGeometry x="2622.5" y="766" width="100" height="100" as="geometry" />
        </mxCell>
        <mxCell id="QRnYH_-JmMfAX1AIp24R-129" value="2" style="text;html=1;align=center;verticalAlign=middle;resizable=0;points=[];autosize=1;strokeColor=none;fillColor=none;" vertex="1" parent="1">
          <mxGeometry x="2652.5" y="776" width="30" height="30" as="geometry" />
        </mxCell>
        <mxCell id="QRnYH_-JmMfAX1AIp24R-142" style="edgeStyle=orthogonalEdgeStyle;rounded=0;orthogonalLoop=1;jettySize=auto;html=1;" edge="1" parent="1" source="QRnYH_-JmMfAX1AIp24R-132" target="QRnYH_-JmMfAX1AIp24R-59">
          <mxGeometry relative="1" as="geometry" />
        </mxCell>
        <mxCell id="QRnYH_-JmMfAX1AIp24R-132" value="confirmar posteo" style="ellipse;whiteSpace=wrap;html=1;aspect=fixed;" vertex="1" parent="1">
          <mxGeometry x="2622.5" y="1123.5" width="100" height="100" as="geometry" />
        </mxCell>
        <mxCell id="QRnYH_-JmMfAX1AIp24R-133" value="2" style="text;html=1;align=center;verticalAlign=middle;resizable=0;points=[];autosize=1;strokeColor=none;fillColor=none;" vertex="1" parent="1">
          <mxGeometry x="2652.5" y="1123.5" width="30" height="30" as="geometry" />
        </mxCell>
        <mxCell id="QRnYH_-JmMfAX1AIp24R-141" style="edgeStyle=orthogonalEdgeStyle;rounded=0;orthogonalLoop=1;jettySize=auto;html=1;entryX=0.5;entryY=0;entryDx=0;entryDy=0;" edge="1" parent="1" source="QRnYH_-JmMfAX1AIp24R-134" target="QRnYH_-JmMfAX1AIp24R-132">
          <mxGeometry relative="1" as="geometry" />
        </mxCell>
        <mxCell id="QRnYH_-JmMfAX1AIp24R-134" value="agregar descripcion" style="ellipse;whiteSpace=wrap;html=1;aspect=fixed;" vertex="1" parent="1">
          <mxGeometry x="2622.5" y="951" width="100" height="100" as="geometry" />
        </mxCell>
        <mxCell id="QRnYH_-JmMfAX1AIp24R-135" value="2" style="text;html=1;align=center;verticalAlign=middle;resizable=0;points=[];autosize=1;strokeColor=none;fillColor=none;" vertex="1" parent="1">
          <mxGeometry x="2652.5" y="951" width="30" height="30" as="geometry" />
        </mxCell>
        <mxCell id="QRnYH_-JmMfAX1AIp24R-151" value="" style="endArrow=none;html=1;rounded=0;" edge="1" parent="1">
          <mxGeometry width="50" height="50" relative="1" as="geometry">
            <mxPoint x="2357.5" y="910.71" as="sourcePoint" />
            <mxPoint x="2437.5" y="910.71" as="targetPoint" />
          </mxGeometry>
        </mxCell>
        <mxCell id="QRnYH_-JmMfAX1AIp24R-152" value="" style="endArrow=none;html=1;rounded=0;" edge="1" parent="1">
          <mxGeometry width="50" height="50" relative="1" as="geometry">
            <mxPoint x="2362.5" y="931" as="sourcePoint" />
            <mxPoint x="2442.5" y="931" as="targetPoint" />
          </mxGeometry>
        </mxCell>
        <mxCell id="QRnYH_-JmMfAX1AIp24R-154" value="" style="endArrow=none;html=1;rounded=0;" edge="1" parent="1">
          <mxGeometry width="50" height="50" relative="1" as="geometry">
            <mxPoint x="2355.5" y="1053.5" as="sourcePoint" />
            <mxPoint x="2435.5" y="1053.5" as="targetPoint" />
          </mxGeometry>
        </mxCell>
        <mxCell id="QRnYH_-JmMfAX1AIp24R-155" value="" style="endArrow=none;html=1;rounded=0;" edge="1" parent="1">
          <mxGeometry width="50" height="50" relative="1" as="geometry">
            <mxPoint x="2355.5" y="1073.39" as="sourcePoint" />
            <mxPoint x="2435.5" y="1073.39" as="targetPoint" />
          </mxGeometry>
        </mxCell>
        <mxCell id="QRnYH_-JmMfAX1AIp24R-161" style="edgeStyle=orthogonalEdgeStyle;rounded=0;orthogonalLoop=1;jettySize=auto;html=1;entryX=0;entryY=0.5;entryDx=0;entryDy=0;exitX=0.437;exitY=0.086;exitDx=0;exitDy=0;exitPerimeter=0;" edge="1" parent="1" source="QRnYH_-JmMfAX1AIp24R-156" target="QRnYH_-JmMfAX1AIp24R-120">
          <mxGeometry relative="1" as="geometry">
            <Array as="points">
              <mxPoint x="2391" y="790.5" />
            </Array>
          </mxGeometry>
        </mxCell>
        <mxCell id="QRnYH_-JmMfAX1AIp24R-234" style="edgeStyle=orthogonalEdgeStyle;rounded=0;orthogonalLoop=1;jettySize=auto;html=1;entryX=1;entryY=0;entryDx=0;entryDy=0;" edge="1" parent="1" source="QRnYH_-JmMfAX1AIp24R-156" target="QRnYH_-JmMfAX1AIp24R-216">
          <mxGeometry relative="1" as="geometry">
            <Array as="points">
              <mxPoint x="2398" y="983.5" />
              <mxPoint x="2340" y="983.5" />
              <mxPoint x="2340" y="1728.5" />
            </Array>
          </mxGeometry>
        </mxCell>
        <mxCell id="QRnYH_-JmMfAX1AIp24R-156" value="COMENTARIOS" style="text;html=1;align=center;verticalAlign=middle;resizable=0;points=[];autosize=1;strokeColor=none;fillColor=none;" vertex="1" parent="1">
          <mxGeometry x="2342.5" y="903.5" width="110" height="30" as="geometry" />
        </mxCell>
        <mxCell id="QRnYH_-JmMfAX1AIp24R-162" style="edgeStyle=orthogonalEdgeStyle;rounded=0;orthogonalLoop=1;jettySize=auto;html=1;entryX=0;entryY=0.5;entryDx=0;entryDy=0;" edge="1" parent="1" source="QRnYH_-JmMfAX1AIp24R-157" target="QRnYH_-JmMfAX1AIp24R-120">
          <mxGeometry relative="1" as="geometry">
            <Array as="points">
              <mxPoint x="2350" y="791.5" />
            </Array>
          </mxGeometry>
        </mxCell>
        <mxCell id="QRnYH_-JmMfAX1AIp24R-229" style="edgeStyle=orthogonalEdgeStyle;rounded=0;orthogonalLoop=1;jettySize=auto;html=1;entryX=1;entryY=0.5;entryDx=0;entryDy=0;" edge="1" parent="1" source="QRnYH_-JmMfAX1AIp24R-157" target="QRnYH_-JmMfAX1AIp24R-216">
          <mxGeometry relative="1" as="geometry">
            <Array as="points">
              <mxPoint x="2390" y="1763.5" />
            </Array>
          </mxGeometry>
        </mxCell>
        <mxCell id="QRnYH_-JmMfAX1AIp24R-157" value="CALIFICACIONES&lt;div&gt;&lt;br&gt;&lt;/div&gt;" style="text;html=1;align=center;verticalAlign=middle;resizable=0;points=[];autosize=1;strokeColor=none;fillColor=none;" vertex="1" parent="1">
          <mxGeometry x="2337.5" y="1053.5" width="120" height="40" as="geometry" />
        </mxCell>
        <mxCell id="QRnYH_-JmMfAX1AIp24R-165" style="edgeStyle=orthogonalEdgeStyle;rounded=0;orthogonalLoop=1;jettySize=auto;html=1;entryX=0.241;entryY=1.001;entryDx=0;entryDy=0;entryPerimeter=0;" edge="1" parent="1" source="QRnYH_-JmMfAX1AIp24R-106" target="QRnYH_-JmMfAX1AIp24R-55">
          <mxGeometry relative="1" as="geometry" />
        </mxCell>
        <mxCell id="QRnYH_-JmMfAX1AIp24R-187" style="edgeStyle=orthogonalEdgeStyle;rounded=0;orthogonalLoop=1;jettySize=auto;html=1;entryX=0.5;entryY=0;entryDx=0;entryDy=0;" edge="1" parent="1" source="QRnYH_-JmMfAX1AIp24R-183" target="QRnYH_-JmMfAX1AIp24R-102">
          <mxGeometry relative="1" as="geometry" />
        </mxCell>
        <mxCell id="QRnYH_-JmMfAX1AIp24R-193" style="edgeStyle=orthogonalEdgeStyle;rounded=0;orthogonalLoop=1;jettySize=auto;html=1;entryX=1;entryY=0.5;entryDx=0;entryDy=0;" edge="1" parent="1" source="QRnYH_-JmMfAX1AIp24R-183" target="QRnYH_-JmMfAX1AIp24R-102">
          <mxGeometry relative="1" as="geometry">
            <Array as="points">
              <mxPoint x="2324" y="790.5" />
              <mxPoint x="2324" y="933.5" />
            </Array>
          </mxGeometry>
        </mxCell>
        <mxCell id="QRnYH_-JmMfAX1AIp24R-194" style="edgeStyle=orthogonalEdgeStyle;rounded=0;orthogonalLoop=1;jettySize=auto;html=1;entryX=1;entryY=0.5;entryDx=0;entryDy=0;" edge="1" parent="1" source="QRnYH_-JmMfAX1AIp24R-183" target="QRnYH_-JmMfAX1AIp24R-104">
          <mxGeometry relative="1" as="geometry">
            <Array as="points">
              <mxPoint x="2324" y="790.5" />
              <mxPoint x="2324" y="1053.5" />
            </Array>
          </mxGeometry>
        </mxCell>
        <mxCell id="QRnYH_-JmMfAX1AIp24R-195" style="edgeStyle=orthogonalEdgeStyle;rounded=0;orthogonalLoop=1;jettySize=auto;html=1;entryX=1;entryY=0.5;entryDx=0;entryDy=0;" edge="1" parent="1" source="QRnYH_-JmMfAX1AIp24R-183" target="QRnYH_-JmMfAX1AIp24R-106">
          <mxGeometry relative="1" as="geometry">
            <Array as="points">
              <mxPoint x="2324" y="790.5" />
              <mxPoint x="2324" y="1203.5" />
            </Array>
          </mxGeometry>
        </mxCell>
        <mxCell id="QRnYH_-JmMfAX1AIp24R-183" value="ver mensaje" style="ellipse;whiteSpace=wrap;html=1;aspect=fixed;" vertex="1" parent="1">
          <mxGeometry x="2204" y="741" width="100" height="100" as="geometry" />
        </mxCell>
        <mxCell id="QRnYH_-JmMfAX1AIp24R-184" value="2" style="text;html=1;align=center;verticalAlign=middle;resizable=0;points=[];autosize=1;strokeColor=none;fillColor=none;" vertex="1" parent="1">
          <mxGeometry x="2239" y="751" width="30" height="30" as="geometry" />
        </mxCell>
        <mxCell id="QRnYH_-JmMfAX1AIp24R-190" style="edgeStyle=orthogonalEdgeStyle;rounded=0;orthogonalLoop=1;jettySize=auto;html=1;entryX=0.5;entryY=-0.026;entryDx=0;entryDy=0;entryPerimeter=0;" edge="1" parent="1" source="QRnYH_-JmMfAX1AIp24R-102" target="QRnYH_-JmMfAX1AIp24R-104">
          <mxGeometry relative="1" as="geometry" />
        </mxCell>
        <mxCell id="QRnYH_-JmMfAX1AIp24R-199" value="eliminar posteo" style="ellipse;whiteSpace=wrap;html=1;aspect=fixed;" vertex="1" parent="1">
          <mxGeometry x="2458" y="1223.5" width="100" height="100" as="geometry" />
        </mxCell>
        <mxCell id="QRnYH_-JmMfAX1AIp24R-200" value="2" style="text;html=1;align=center;verticalAlign=middle;resizable=0;points=[];autosize=1;strokeColor=none;fillColor=none;" vertex="1" parent="1">
          <mxGeometry x="2493" y="1232.5" width="30" height="30" as="geometry" />
        </mxCell>
        <mxCell id="QRnYH_-JmMfAX1AIp24R-203" value="eliminar comentario" style="ellipse;whiteSpace=wrap;html=1;aspect=fixed;" vertex="1" parent="1">
          <mxGeometry x="2458" y="1343.5" width="100" height="100" as="geometry" />
        </mxCell>
        <mxCell id="QRnYH_-JmMfAX1AIp24R-204" value="2" style="text;html=1;align=center;verticalAlign=middle;resizable=0;points=[];autosize=1;strokeColor=none;fillColor=none;" vertex="1" parent="1">
          <mxGeometry x="2493" y="1352.5" width="30" height="30" as="geometry" />
        </mxCell>
        <mxCell id="QRnYH_-JmMfAX1AIp24R-219" style="edgeStyle=orthogonalEdgeStyle;rounded=0;orthogonalLoop=1;jettySize=auto;html=1;entryX=0.5;entryY=0;entryDx=0;entryDy=0;" edge="1" parent="1" source="QRnYH_-JmMfAX1AIp24R-212" target="QRnYH_-JmMfAX1AIp24R-214">
          <mxGeometry relative="1" as="geometry" />
        </mxCell>
        <mxCell id="QRnYH_-JmMfAX1AIp24R-212" value="agregar usuario" style="ellipse;whiteSpace=wrap;html=1;aspect=fixed;" vertex="1" parent="1">
          <mxGeometry x="2230" y="1463.5" width="100" height="100" as="geometry" />
        </mxCell>
        <mxCell id="QRnYH_-JmMfAX1AIp24R-213" value="2" style="text;html=1;align=center;verticalAlign=middle;resizable=0;points=[];autosize=1;strokeColor=none;fillColor=none;" vertex="1" parent="1">
          <mxGeometry x="2265" y="1472.5" width="30" height="30" as="geometry" />
        </mxCell>
        <mxCell id="QRnYH_-JmMfAX1AIp24R-214" value="agregar datos" style="ellipse;whiteSpace=wrap;html=1;aspect=fixed;" vertex="1" parent="1">
          <mxGeometry x="2230" y="1583.5" width="100" height="100" as="geometry" />
        </mxCell>
        <mxCell id="QRnYH_-JmMfAX1AIp24R-215" value="2" style="text;html=1;align=center;verticalAlign=middle;resizable=0;points=[];autosize=1;strokeColor=none;fillColor=none;" vertex="1" parent="1">
          <mxGeometry x="2265" y="1592.5" width="30" height="30" as="geometry" />
        </mxCell>
        <mxCell id="QRnYH_-JmMfAX1AIp24R-228" style="edgeStyle=orthogonalEdgeStyle;rounded=0;orthogonalLoop=1;jettySize=auto;html=1;entryX=0;entryY=0.75;entryDx=0;entryDy=0;" edge="1" parent="1" source="QRnYH_-JmMfAX1AIp24R-216" target="QRnYH_-JmMfAX1AIp24R-87">
          <mxGeometry relative="1" as="geometry">
            <Array as="points">
              <mxPoint x="1960" y="1763.5" />
              <mxPoint x="1960" y="459.5" />
            </Array>
          </mxGeometry>
        </mxCell>
        <mxCell id="QRnYH_-JmMfAX1AIp24R-216" value="backup general" style="ellipse;whiteSpace=wrap;html=1;aspect=fixed;" vertex="1" parent="1">
          <mxGeometry x="2230" y="1713.5" width="100" height="100" as="geometry" />
        </mxCell>
        <mxCell id="QRnYH_-JmMfAX1AIp24R-217" value="2" style="text;html=1;align=center;verticalAlign=middle;resizable=0;points=[];autosize=1;strokeColor=none;fillColor=none;" vertex="1" parent="1">
          <mxGeometry x="2265" y="1722.5" width="30" height="30" as="geometry" />
        </mxCell>
        <mxCell id="QRnYH_-JmMfAX1AIp24R-223" style="edgeStyle=orthogonalEdgeStyle;rounded=0;orthogonalLoop=1;jettySize=auto;html=1;entryX=0.996;entryY=0.544;entryDx=0;entryDy=0;entryPerimeter=0;" edge="1" parent="1" source="QRnYH_-JmMfAX1AIp24R-214" target="QRnYH_-JmMfAX1AIp24R-82">
          <mxGeometry relative="1" as="geometry">
            <Array as="points">
              <mxPoint x="2980" y="1633.5" />
              <mxPoint x="2980" y="179.5" />
            </Array>
          </mxGeometry>
        </mxCell>
        <mxCell id="QRnYH_-JmMfAX1AIp24R-224" style="edgeStyle=orthogonalEdgeStyle;rounded=0;orthogonalLoop=1;jettySize=auto;html=1;entryX=1.161;entryY=0.433;entryDx=0;entryDy=0;entryPerimeter=0;" edge="1" parent="1" source="QRnYH_-JmMfAX1AIp24R-214" target="QRnYH_-JmMfAX1AIp24R-83">
          <mxGeometry relative="1" as="geometry">
            <Array as="points">
              <mxPoint x="3040" y="1633.5" />
              <mxPoint x="3040" y="256.5" />
            </Array>
          </mxGeometry>
        </mxCell>
        <mxCell id="QRnYH_-JmMfAX1AIp24R-226" style="edgeStyle=orthogonalEdgeStyle;rounded=0;orthogonalLoop=1;jettySize=auto;html=1;entryX=0.155;entryY=0.913;entryDx=0;entryDy=0;entryPerimeter=0;" edge="1" parent="1" source="QRnYH_-JmMfAX1AIp24R-203" target="QRnYH_-JmMfAX1AIp24R-156">
          <mxGeometry relative="1" as="geometry">
            <Array as="points">
              <mxPoint x="2340" y="1393.5" />
              <mxPoint x="2340" y="930.5" />
            </Array>
          </mxGeometry>
        </mxCell>
        <mxCell id="QRnYH_-JmMfAX1AIp24R-227" style="edgeStyle=orthogonalEdgeStyle;rounded=0;orthogonalLoop=1;jettySize=auto;html=1;entryX=0.75;entryY=1.333;entryDx=0;entryDy=0;entryPerimeter=0;" edge="1" parent="1" source="QRnYH_-JmMfAX1AIp24R-199" target="QRnYH_-JmMfAX1AIp24R-59">
          <mxGeometry relative="1" as="geometry">
            <Array as="points">
              <mxPoint x="2508" y="1333.5" />
              <mxPoint x="2860" y="1333.5" />
            </Array>
          </mxGeometry>
        </mxCell>
        <mxCell id="S8hj7JyeG5HTqA9IETCC-2" value="nivel 1" style="text;html=1;align=center;verticalAlign=middle;resizable=0;points=[];autosize=1;strokeColor=none;fillColor=none;" vertex="1" parent="1">
          <mxGeometry x="1229" y="30" width="60" height="30" as="geometry" />
        </mxCell>
        <mxCell id="S8hj7JyeG5HTqA9IETCC-3" value="nivel 0" style="text;html=1;align=center;verticalAlign=middle;resizable=0;points=[];autosize=1;strokeColor=none;fillColor=none;" vertex="1" parent="1">
          <mxGeometry x="470" y="30" width="60" height="30" as="geometry" />
        </mxCell>
        <mxCell id="S8hj7JyeG5HTqA9IETCC-4" value="nivel 2" style="text;html=1;align=center;verticalAlign=middle;resizable=0;points=[];autosize=1;strokeColor=none;fillColor=none;" vertex="1" parent="1">
          <mxGeometry x="2452.5" y="30" width="60" height="30" as="geometry" />
        </mxCell>
      </root>
    </mxGraphModel>
  </diagram>
</mxfile>
